<svg width="20" height="16" viewBox="0 0 20 16" fill="none" xmlns="http://www.w3.org/2000/svg">
<path opacity="0.2" d="M10.552 4C10.2868 4 10.0324 4.10536 9.8449 4.29289C9.65736 4.48043 9.552 4.73478 9.552 5C9.552 5.26522 9.65736 5.51957 9.8449 5.70711C10.0324 5.89464 10.2868 6 10.552 6H14.552C14.8172 6 15.0716 5.89464 15.2591 5.70711C15.4466 5.51957 15.552 5.26522 15.552 5C15.552 4.73478 15.4466 4.48043 15.2591 4.29289C15.0716 4.10536 14.8172 4 14.552 4H10.552Z" fill="#8B8C8D"/>
<path opacity="0.2" d="M10.552 13C10.2868 13 10.0324 13.1054 9.8449 13.2929C9.65736 13.4804 9.552 13.7348 9.552 14C9.552 14.2652 9.65736 14.5196 9.8449 14.7071C10.0324 14.8946 10.2868 15 10.552 15H14.552C14.8172 15 15.0716 14.8946 15.2591 14.7071C15.4466 14.5196 15.552 14.2652 15.552 14C15.552 13.7348 15.4466 13.4804 15.2591 13.2929C15.0716 13.1054 14.8172 13 14.552 13H10.552Z" fill="#8B8C8D"/>
<path d="M10.552 1C10.2868 1 10.0324 1.10536 9.8449 1.29289C9.65736 1.48043 9.552 1.73478 9.552 2C9.552 2.26522 9.65736 2.51957 9.8449 2.70711C10.0324 2.89464 10.2868 3 10.552 3H18.552C18.8172 3 19.0716 2.89464 19.2591 2.70711C19.4466 2.51957 19.552 2.26522 19.552 2C19.552 1.73478 19.4466 1.48043 19.2591 1.29289C19.0716 1.10536 18.8172 1 18.552 1H10.552Z" fill="#8B8C8D"/>
<path d="M10.552 10C10.2868 10 10.0324 10.1054 9.8449 10.2929C9.65736 10.4804 9.552 10.7348 9.552 11C9.552 11.2652 9.65736 11.5196 9.8449 11.7071C10.0324 11.8946 10.2868 12 10.552 12H18.552C18.8172 12 19.0716 11.8946 19.2591 11.7071C19.4466 11.5196 19.552 11.2652 19.552 11C19.552 10.7348 19.4466 10.4804 19.2591 10.2929C19.0716 10.1054 18.8172 10 18.552 10H10.552Z" fill="#8B8C8D"/>
<path d="M1.448 0.00195312C1.18278 0.00195312 0.928428 0.10731 0.740891 0.294847C0.553355 0.482383 0.447998 0.736737 0.447998 1.00195V6.00195C0.447998 6.26717 0.553355 6.52152 0.740891 6.70906C0.928428 6.8966 1.18278 7.00195 1.448 7.00195H6.448C6.71321 7.00195 6.96757 6.8966 7.1551 6.70906C7.34264 6.52152 7.448 6.26717 7.448 6.00195V1.00195C7.448 0.736737 7.34264 0.482383 7.1551 0.294847C6.96757 0.10731 6.71321 0.00195312 6.448 0.00195312H1.448Z" fill="#8B8C8D"/>
<path d="M1.448 8.99805C1.18278 8.99805 0.928428 9.1034 0.740891 9.29094C0.553355 9.47848 0.447998 9.73283 0.447998 9.99805V14.998C0.447998 15.2633 0.553355 15.5176 0.740891 15.7052C0.928428 15.8927 1.18278 15.998 1.448 15.998H6.448C6.71321 15.998 6.96757 15.8927 7.1551 15.7052C7.34264 15.5176 7.448 15.2633 7.448 14.998V9.99805C7.448 9.73283 7.34264 9.47848 7.1551 9.29094C6.96757 9.1034 6.71321 8.99805 6.448 8.99805H1.448Z" fill="#8B8C8D"/>
</svg>
